# xmcd CD database file
#
# Track frame offsets:
#	150
#	24983
#	48504
#	63545
#	90551
#	112114
#	129622
#	153736
#
# Disc length: 2349 seconds
#
# Revision: 1
# Processed by: cddbd v1.5.1PL0 Copyright (c) Steve Scherf et al.
# Submitted via: CDex 1.51
#
DISCID=6b092b08
DTITLE=Lorenza Ponce - Lorenza Ponce
DYEAR=1999
DGENRE=New Age
TTITLE0=Deeply
TTITLE1=Saved
TTITLE2=The Vision
TTITLE3=Ruby
TTITLE4=Into The Daylight
TTITLE5=Can You Hear Me
TTITLE6=The Gift
TTITLE7=Beloved
EXTD=YEAR: 1999
EXTT0=
EXTT1=
EXTT2=
EXTT3=
EXTT4=
EXTT5=
EXTT6=
EXTT7=
PLAYORDER=
